<svg xmlns="http://www.w3.org/2000/svg" xmlns:xlink="http://www.w3.org/1999/xlink" width="500" zoomAndPan="magnify" viewBox="0 0 375 374.999991" height="500" preserveAspectRatio="xMidYMid meet" version="1.0"><defs><clipPath id="178e15a89e"><path d="M 88.972656 75.074219 L 286.222656 75.074219 L 286.222656 300 L 88.972656 300 Z M 88.972656 75.074219 " clip-rule="nonzero"/></clipPath></defs><rect x="-37.5" width="450" fill="#ffffff" y="-37.499999" height="449.999989" fill-opacity="1"/><rect x="-37.5" width="450" fill="#695cf3" y="-37.499999" height="449.999989" fill-opacity="1"/><path fill="#f6f5ff" d="M 251.371094 150.589844 C 250.972656 149.855469 250.449219 149.132812 249.355469 148.578125 L 233.753906 139.566406 C 233.539062 139.445312 233.304688 139.351562 233.058594 139.289062 C 232.984375 139.269531 232.90625 139.269531 232.820312 139.257812 C 232.660156 139.230469 232.496094 139.199219 232.335938 139.203125 L 232.304688 139.199219 L 232.304688 139.207031 C 231.84375 139.214844 231.390625 139.339844 230.988281 139.570312 L 195.882812 159.84375 L 195.851562 159.78125 L 193.019531 161.417969 C 189.601562 163.390625 185.398438 163.390625 181.980469 161.417969 L 166.632812 152.558594 C 165.78125 152.066406 165.257812 151.15625 165.257812 150.167969 C 165.257812 149.183594 165.78125 148.273438 166.632812 147.777344 L 181.980469 138.925781 C 185.398438 136.953125 189.601562 136.953125 193.019531 138.925781 L 196.714844 141.058594 C 197.566406 141.546875 198.613281 141.546875 199.46875 141.058594 L 213.761719 132.804688 C 214.617188 132.3125 215.140625 131.402344 215.140625 130.417969 C 215.140625 129.433594 214.617188 128.519531 213.761719 128.027344 L 193.019531 116.046875 C 189.601562 114.078125 185.398438 114.078125 181.980469 116.046875 L 131.160156 145.390625 C 127.484375 147.515625 127.484375 152.820312 131.160156 154.945312 L 181.980469 184.289062 C 185.398438 186.257812 189.601562 186.257812 193.019531 184.289062 L 232.304688 161.605469 L 232.304688 213.277344 L 219.683594 220.589844 L 193.019531 236.03125 C 192.171875 236.515625 191.269531 236.882812 190.332031 237.136719 C 187.515625 237.882812 184.511719 237.484375 181.980469 236.03125 L 145.449219 214.9375 C 143.742188 213.953125 142.691406 212.128906 142.691406 210.160156 L 142.691406 180.039062 C 142.691406 179.054688 142.164062 178.136719 141.3125 177.652344 L 127.023438 169.394531 C 126.167969 168.902344 125.117188 168.902344 124.261719 169.394531 C 123.40625 169.886719 122.882812 170.800781 122.882812 171.789062 L 122.882812 221.597656 C 122.882812 223.566406 123.933594 225.382812 125.644531 226.378906 L 181.980469 258.90625 C 183.636719 259.859375 185.515625 260.359375 187.421875 260.375 L 187.460938 260.375 C 187.730469 260.375 188 260.34375 188.269531 260.328125 C 188.476562 260.316406 188.683594 260.316406 188.894531 260.292969 C 189.175781 260.253906 189.460938 260.183594 189.738281 260.128906 C 189.933594 260.082031 190.125 260.0625 190.308594 260.015625 C 190.617188 259.9375 190.910156 259.820312 191.203125 259.714844 C 191.371094 259.652344 191.53125 259.613281 191.6875 259.550781 C 192.140625 259.367188 192.585938 259.152344 193.011719 258.90625 L 241.621094 230.839844 L 249.324219 226.46875 C 251.046875 225.492188 252.117188 223.660156 252.117188 221.675781 L 252.117188 153.351562 C 252.117188 152.367188 251.847656 151.417969 251.371094 150.589844 " fill-opacity="1" fill-rule="nonzero"/><g clip-path="url(#178e15a89e)"><path fill="#f6f5ff" d="M 192.878906 99.546875 C 191.242188 98.605469 189.394531 98.097656 187.5 98.082031 C 185.613281 98.097656 183.757812 98.605469 182.121094 99.546875 L 114.230469 138.746094 C 110.828125 140.710938 108.730469 144.34375 108.730469 148.273438 L 108.730469 226.671875 C 108.726562 230.605469 110.824219 234.238281 114.230469 236.203125 L 182.121094 275.394531 C 183.78125 276.359375 185.660156 276.867188 187.578125 276.875 C 189.492188 276.867188 191.378906 276.359375 193.042969 275.402344 L 260.632812 236.378906 C 264.035156 234.414062 266.136719 230.78125 266.136719 226.847656 L 266.136719 204.195312 C 266.128906 203.210938 266.660156 202.300781 267.503906 201.808594 L 281.898438 193.503906 C 282.746094 193.011719 283.800781 193.011719 284.648438 193.503906 C 285.5 193.996094 286.023438 194.90625 286.023438 195.890625 L 286.023438 238.078125 C 286.015625 239.878906 285.570312 241.652344 284.722656 243.238281 C 284.507812 244.277344 283.378906 245.5 281.777344 246.753906 C 281.746094 246.785156 281.699219 246.816406 281.660156 246.847656 C 277.597656 250.011719 270.867188 253.273438 269.675781 253.964844 L 193.042969 298.210938 C 191.324219 299.195312 189.371094 299.703125 187.390625 299.679688 L 187.308594 299.679688 L 187.308594 299.671875 C 185.484375 299.628906 183.695312 299.117188 182.121094 298.210938 L 94.476562 247.609375 C 91.074219 245.644531 88.976562 242.011719 88.972656 238.078125 L 88.972656 136.875 C 88.972656 135.109375 89.199219 133.308594 89.972656 131.785156 C 90.082031 131.390625 91.140625 129.445312 93.332031 127.847656 C 94.15625 127.289062 95.613281 126.542969 96.980469 125.753906 L 181.875 76.742188 C 183.582031 75.757812 185.53125 75.25 187.5 75.273438 C 189.480469 75.25 191.417969 75.757812 193.128906 76.742188 L 271.460938 121.964844 C 271.640625 122.074219 271.777344 122.203125 271.933594 122.328125 L 272.925781 122.894531 C 275.589844 124.308594 279.761719 126.460938 282.023438 128.179688 L 282.207031 128.316406 C 282.238281 128.339844 282.269531 128.363281 282.300781 128.382812 C 282.378906 128.449219 282.429688 128.515625 282.507812 128.585938 C 283.339844 129.28125 284.046875 130.097656 284.59375 131.007812 C 284.609375 131.019531 284.617188 131.039062 284.632812 131.050781 L 284.625 131.054688 C 285.539062 132.582031 286.027344 134.332031 286.027344 136.109375 L 286.027344 173.167969 C 286.027344 174.152344 285.503906 175.0625 284.648438 175.554688 L 270.253906 183.867188 C 269.40625 184.351562 268.351562 184.351562 267.507812 183.867188 C 266.652344 183.375 266.128906 182.464844 266.128906 181.480469 L 266.128906 148.0625 C 266.128906 144.125 264.027344 140.488281 260.617188 138.523438 L 192.878906 99.546875 L 192.878906 99.550781 Z M 192.878906 99.546875 " fill-opacity="1" fill-rule="nonzero"/></g></svg>